<svg xmlns="http://www.w3.org/2000/svg" width="18.469" height="18" viewBox="0 0 18.469 18">
  <g id="adidas" transform="translate(-127.337 533.1)">
    <path id="Path_26" data-name="Path 26" d="M332.9-532.9a9.6,9.6,0,0,0-2.141,5.094,14.216,14.216,0,0,0-.024,2.233l.027.169,2.317.01c1.272,0,2.324,0,2.337-.017a5.156,5.156,0,0,0,.064-.67,10.159,10.159,0,0,0-.727-4.381,8.33,8.33,0,0,0-1.549-2.53l-.115-.112Z" transform="translate(-196.489)"/>
    <path id="Path_27" data-name="Path 27" d="M130.416-425.794a6.527,6.527,0,0,0,.132,1.434,9.488,9.488,0,0,0,.7,2.087l.169.365h2.7c1.488,0,2.7-.007,2.7-.02a5.949,5.949,0,0,0-.555-.775,10.723,10.723,0,0,0-1.34-1.346,10.131,10.131,0,0,0-3.163-1.7,7.092,7.092,0,0,0-1.187-.247h-.139Z" transform="translate(-2.969 -103.477)"/>
    <path id="Path_28" data-name="Path 28" d="M489.835-425.949a9.406,9.406,0,0,0-3.839,1.81,13.027,13.027,0,0,0-1.478,1.455,4.967,4.967,0,0,0-.518.748c0,.017,1.039.03,2.686.03h2.683l.186-.4a8.043,8.043,0,0,0,.829-3.129l.02-.565-.166,0A3.535,3.535,0,0,0,489.835-425.949Z" transform="translate(-344.598 -103.477)"/>
    <path id="Path_29" data-name="Path 29" d="M170.958-284.892a3.784,3.784,0,0,0,.23.355l.173.247h14.651l.088-.095a3.96,3.96,0,0,0,.4-.6c0-.01-3.508-.02-7.8-.02h-7.8Z" transform="translate(-42.089 -239.707)"/>
    <path id="Path_30" data-name="Path 30" d="M202.968-241.909a3.512,3.512,0,0,0,.5.494l.115.091h11.992l.166-.108a2.4,2.4,0,0,0,.555-.531c0-.027-1.925-.037-6.7-.037h-6.7Z" transform="translate(-73.007 -281.253)"/>
    <path id="Path_31" data-name="Path 31" d="M252-201.831a10.185,10.185,0,0,0,.9.582,8.044,8.044,0,0,0,1.928.788,4.451,4.451,0,0,0,.93.149,11.086,11.086,0,0,0-.027-1.346l-.024-.169-1.854-.01C252.832-201.841,252-201.838,252-201.831Z" transform="translate(-120.446 -320.055)"/>
    <path id="Path_32" data-name="Path 32" d="M367.008-201.807a9.45,9.45,0,0,0,.822,1.2c.264.3.227.311.531-.071a7.394,7.394,0,0,0,.842-1.3c0-.014-.518-.024-1.154-.024H366.9Z" transform="translate(-231.459 -319.9)"/>
    <path id="Path_33" data-name="Path 33" d="M439.088-201.909a6.352,6.352,0,0,0-.088,1.066c0,.4,0,.4.078.386a2.664,2.664,0,0,1,.277-.037,8.011,8.011,0,0,0,2.6-.947,7.688,7.688,0,0,0,.778-.524,16.886,16.886,0,0,0-1.806-.034h-1.823Z" transform="translate(-301.12 -319.9)"/>
    <path id="Path_34" data-name="Path 34" d="M236.206-127.812a4.8,4.8,0,0,0-.024.656v.629l-.2-.095a1.666,1.666,0,0,0-2.189.758,1.614,1.614,0,0,0,1.008,2.266,1.414,1.414,0,0,0,.541.054,1.736,1.736,0,0,0,.792-.216c.02-.01.044.014.051.061.01.074.02.078.409.088l.4.01-.007-2.107-.01-2.107-.375-.01A2.284,2.284,0,0,0,236.206-127.812Zm-.484,1.867a1.008,1.008,0,0,1,.416.491.983.983,0,0,1-.027.646.9.9,0,0,1-1.654,0,1.055,1.055,0,0,1-.03-.646A.918.918,0,0,1,235.722-125.944Z" transform="translate(-102.7 -391.564)"/>
    <path id="Path_35" data-name="Path 35" d="M344-127.691v.409l.382-.01.379-.01v-.778l-.379-.01L344-128.1Z" transform="translate(-209.334 -391.3)"/>
    <path id="Path_36" data-name="Path 36" d="M378.908-127.34v.66l-.169-.085a1.712,1.712,0,0,0-1.529,0,1.842,1.842,0,0,0-.7.724,1.62,1.62,0,0,0,.321,1.867,1.527,1.527,0,0,0,1.143.467,1.575,1.575,0,0,0,.71-.152c.217-.1.22-.1.22,0v.085h.744V-128h-.744Zm-.565,1.187a.935.935,0,0,1,.531.68.881.881,0,0,1-.487.937.88.88,0,0,1-1.258-.578.592.592,0,0,1-.017-.365.967.967,0,0,1,.619-.714A.969.969,0,0,1,378.343-126.153Z" transform="translate(-240.588 -391.396)"/>
    <path id="Path_37" data-name="Path 37" d="M646.21-127.54a.4.4,0,0,0-.21.352.386.386,0,0,0,.693.237.335.335,0,0,0,.068-.24.289.289,0,0,0-.1-.264A.382.382,0,0,0,646.21-127.54Zm.328.061a.338.338,0,0,1-.027.6.318.318,0,0,1-.443-.3A.313.313,0,0,1,646.538-127.479Z" transform="translate(-501.118 -391.802)"/>
    <path id="Path_38" data-name="Path 38" d="M654-121.79c0,.118.01.183.02.145.027-.118.071-.129.129-.037.074.112.129.115.078,0-.027-.061-.027-.095,0-.132a.138.138,0,0,0,.02-.122c-.017-.051-.051-.068-.139-.068H654Zm.193-.1c.01.057-.078.112-.132.078a.109.109,0,0,1-.03-.085c0-.051.02-.068.074-.058A.1.1,0,0,1,654.2-121.9Z" transform="translate(-508.847 -397.193)"/>
    <path id="Path_39" data-name="Path 39" d="M128.57-96.621a1.554,1.554,0,0,0-.758.436,1.608,1.608,0,0,0,.01,2.294,1.5,1.5,0,0,0,1.245.46,1.838,1.838,0,0,0,.788-.22q.041-.015.041.071v.088h.778v-3.146H129.9v.244l-.088-.058A1.888,1.888,0,0,0,128.57-96.621Zm.673.71a.915.915,0,0,1,.582,1.2.9.9,0,0,1-1.637.051.9.9,0,0,1,.321-1.15A.822.822,0,0,1,129.244-95.911Z" transform="translate(0 -421.676)"/>
    <path id="Path_40" data-name="Path 40" d="M483.234-96.724a1.919,1.919,0,0,0-.4.156,1.878,1.878,0,0,0-.67.683,1.639,1.639,0,0,0,.88,2.26,1.335,1.335,0,0,0,.589.078,1.065,1.065,0,0,0,.639-.108c.125-.061.237-.112.244-.112s.014.037.014.085v.088l.4-.01.4-.01v-3.112h-.778l-.01.1-.01.108-.142-.081A1.707,1.707,0,0,0,483.234-96.724Zm.687.71a.912.912,0,0,1,.612.863.885.885,0,0,1-.863.89.883.883,0,0,1-.9-.886.859.859,0,0,1,.43-.775A.8.8,0,0,1,483.921-96.014Z" transform="translate(-342.662 -421.569)"/>
    <path id="Path_41" data-name="Path 41" d="M590.326-96.717a1.028,1.028,0,0,0-.852.829.916.916,0,0,0,.386.859,3.849,3.849,0,0,0,1.079.291c.277.041.447.149.447.284a.419.419,0,0,1-.3.315c-.392.118-.788-.041-.849-.338l-.024-.112-.386-.01a1.689,1.689,0,0,0-.413.02c-.047.047.037.348.146.521a1.433,1.433,0,0,0,1.258.534,1.846,1.846,0,0,0,.819-.149.965.965,0,0,0,.545-1.15c-.112-.382-.433-.575-1.177-.71a3.668,3.668,0,0,1-.582-.139.219.219,0,0,1-.044-.4c.081-.061.145-.071.4-.071.271,0,.308.007.386.081a.55.55,0,0,1,.122.193l.041.115h.778l-.024-.112a1.131,1.131,0,0,0-.562-.734A1.91,1.91,0,0,0,590.326-96.717Z" transform="translate(-446.435 -421.576)"/>
    <path id="Path_42" data-name="Path 42" d="M344-94.524v1.576l.382-.01.379-.01V-96.08l-.379-.01L344-96.1Z" transform="translate(-209.334 -422.217)"/>
  </g>
</svg>
