<svg xmlns="http://www.w3.org/2000/svg" xmlns:xlink="http://www.w3.org/1999/xlink" width="500" height="500" viewBox="0 0 500 500">
  <defs>
    <linearGradient id="linear-gradient" x1="0.276" y1="0.354" x2="1" y2="1" gradientUnits="objectBoundingBox">
      <stop offset="0" stop-color="#ff3954"/>
      <stop offset="1" stop-color="#f10020"/>
    </linearGradient>
  </defs>
  <g id="favicon" transform="translate(2726 -937)">
    <rect id="Rectangle_88" data-name="Rectangle 88" width="500" height="500" rx="250" transform="translate(-2726 937)" fill="url(#linear-gradient)"/>
    <path id="logo-pruple" d="M180.493,282.513h0A141.414,141.414,0,0,1,50.338,196.239q-1-2.365-1.913-4.758H75.781A116.289,116.289,0,0,0,180.494,257.4h.616l.385,0h.1l.457-.005.156,0,.327-.005.164,0,.439-.009.157,0,.323-.008.174,0,.429-.013.157-.005.307-.011.209-.008.291-.011.26-.011.326-.014.212-.01.271-.013.19-.009.407-.021.224-.013.242-.014.223-.013.356-.022.27-.017.221-.015.243-.017.221-.016.4-.029.213-.016.251-.02.2-.016.424-.035.2-.017.254-.022.2-.018.253-.023.372-.035.25-.024.2-.02.245-.024.243-.025.385-.041.195-.021.265-.029.18-.02.425-.049.2-.023.256-.031.2-.024.4-.05.21-.026.264-.034.172-.022.265-.035.171-.023.451-.062.18-.025.264-.037.159-.023.456-.067.187-.028.244-.037.214-.033.357-.056.246-.039.243-.039.193-.031.245-.04.375-.063.223-.038.224-.038.223-.039.351-.062.223-.04.255-.046.21-.039.289-.054.238-.045.312-.06.2-.039.26-.051.182-.036.4-.08.175-.036.3-.061.16-.033.412-.086.156-.033.3-.063.166-.036.365-.08.179-.04.322-.072.16-.036.367-.084.07-.016.441-.1.125-.03.348-.083.115-.028.433-.105.113-.028.35-.087.117-.029.446-.113.052-.013.4-.1.1-.027c.3-.079.606-.159.909-.241l.086-.023.437-.119.019-.005.467-.129.069-.019.438-.123.022-.006.485-.139.01,0,.466-.136.036-.01c.316-.093.636-.188.951-.284l.037-.011a116.72,116.72,0,0,0,71.048-60.945h0a115.433,115.433,0,0,0,11.43-50.225h25.113a140.453,140.453,0,0,1-9.189,50.225h0q-.2.517-.4,1.032l-.036.091-.064.164q-.492,1.254-1.007,2.5l-.038.092-.072.174-.093.224-.05.12-.152.362a141.132,141.132,0,0,1-130.154,86.274Zm-35.434-57.378a91.333,91.333,0,1,1,35.433,7.153A90.738,90.738,0,0,1,145.059,225.135Zm-30.486-83.878A65.925,65.925,0,0,0,244.526,156.95H177.353V125.56h67.173a65.925,65.925,0,0,0-129.953,15.7Zm-75.03,9.419v0H0v-31.39H40.926a139.63,139.63,0,0,1,7.5-28.251h0q.911-2.39,1.91-4.758A141.377,141.377,0,0,1,295.814,59.641H350V91.034H287.22v0h-2.014A116.3,116.3,0,0,0,180.492,25.113h-.608l-.419,0H179.4l-.478.005-.116,0-.4.006-.093,0-.476.01-.111,0-.381.01-.127,0-.475.014-.047,0-.442.015-.112,0-.459.018h-.024l-.481.021-.114.005-.4.019-.091,0-.48.025-.081,0-.419.024-.093.005-.485.03-.052,0-.441.029-.091.006c-.323.022-.651.046-.974.071l-.1.008-.468.037h-.013l-.493.042-.084.007-.436.039-.058.005-.493.046-.057.005-.437.043-.082.008c-.329.033-.661.068-.989.1l-.054.006c-.336.037-.67.075-1.005.115l-.04,0c-.341.041-.68.083-1.02.126h-.008l-.511.067H165.1c-.345.046-.686.093-1.029.142l-.015,0q-.516.073-1.029.151h-.006A116.422,116.422,0,0,0,80.563,82.116l-.014.024q-.245.413-.488.829l-.04.069-.2.339-.047.081-.223.388-.046.081-.174.307-.069.122-.2.359-.084.15-.125.225-.107.192-.1.183-.216.4-.054.1-.14.258-.049.092c-.153.283-.306.57-.457.855l-.018.034a115.437,115.437,0,0,0-13.366,54.058q0,4.755.379,9.419Z" transform="translate(-2657 1046)" fill="#ffe5e8"/>
  </g>
</svg>
