<svg xmlns="http://www.w3.org/2000/svg" width="52" height="62" viewBox="0 0 52 62">
  <g id="logo-pruple" transform="translate(-154 -40)">
    <path id="logo-pruple-2" data-name="logo-pruple" d="M21.556,40h0A20.022,20.022,0,0,1,3.128,27.785q-.142-.335-.271-.674H6.73a16.465,16.465,0,0,0,14.826,9.333h.467l.061,0h.1l.041,0,.037,0,.046,0h.03l.038,0H22.4l.058,0,.032,0,.034,0,.032,0,.05,0,.038,0,.031,0,.034,0,.031,0,.057,0,.03,0,.035,0,.028,0,.06,0,.028,0,.036,0,.029,0,.036,0,.053,0,.035,0,.028,0,.035,0,.034,0,.055-.006.028,0,.037,0,.025,0,.06-.007.028,0,.036,0,.028,0,.057-.007.03,0,.037,0,.024,0,.038,0,.024,0,.064-.009.025,0,.037-.005.023,0,.065-.009.026,0,.035-.005.03,0,.051-.008.035-.006.034-.006.027,0,.035-.006.053-.009.032-.005.032-.005.032-.006.05-.009.032-.006.036-.007.03-.005.041-.008.034-.006.044-.008.028-.006.037-.007.026-.005.057-.011.025-.005.042-.009.023,0,.058-.012.022,0,.042-.009.024-.005.052-.011.025-.006.046-.01.023-.005.052-.012.01,0,.062-.015.018,0,.049-.012.016,0,.061-.015.016,0,.05-.012.017,0,.063-.016.007,0,.057-.015.015,0,.129-.034.012,0,.062-.017h0l.066-.018.01,0,.062-.017h0l.069-.02h0l.066-.019h.005l.135-.04.005,0a16.526,16.526,0,0,0,10.059-8.629h0A16.344,16.344,0,0,0,38,20h3.556a19.886,19.886,0,0,1-1.3,7.111h0l-.056.146-.005.013-.009.023q-.07.178-.143.354l-.005.013-.01.025-.013.032-.007.017-.022.051A19.982,19.982,0,0,1,21.556,40Zm-5.017-8.124a12.931,12.931,0,1,1,5.017,1.013A12.847,12.847,0,0,1,16.539,31.876ZM12.222,20a9.334,9.334,0,0,0,18.4,2.222H21.111V17.778h9.511A9.334,9.334,0,0,0,12.222,20ZM1.6,21.334H-4V16.889H1.8a19.77,19.77,0,0,1,1.062-4h0q.129-.338.27-.674A20.017,20.017,0,0,1,37.884,8.444h7.672v4.445H36.382A16.466,16.466,0,0,0,21.556,3.556h-.464l-.067,0h-.007l-.063,0h-.016l-.065,0h0l-.068,0h-.016l-.057,0h-.013l-.068,0h-.011l-.059,0h-.013l-.069,0h-.007l-.062,0h-.013l-.138.01h-.014l-.066.005h0l-.07.006h-.012l-.062.006h-.008l-.07.007h-.008l-.062.006H19.89l-.14.015h-.008l-.142.016h-.006l-.144.018h0l-.072.009h0l-.146.02h0l-.146.021h0A16.484,16.484,0,0,0,7.407,11.626l0,0-.069.117-.006.01L7.3,11.8l-.007.012-.032.055-.007.012-.025.043-.01.017-.029.051-.012.021-.018.032-.015.027-.014.026-.031.056-.008.014-.02.037-.007.013-.065.121,0,0A16.344,16.344,0,0,0,5.111,20q0,.673.054,1.334Z" transform="translate(159 40)" fill="#691bda"/>
    <text id="UIMINUT" transform="translate(180 99)" fill="#691bda" font-size="12" font-family="EuclidCircularA-Medium, Euclid Circular A" font-weight="500"><tspan x="-25.638" y="0">UIMINUT</tspan></text>
  </g>
</svg>
