<svg xmlns="http://www.w3.org/2000/svg" width="74.333" height="60" viewBox="0 0 74.333 60">
  <path id="logo" d="M34.334,60h0A30.033,30.033,0,0,1,6.691,41.677q-.212-.5-.406-1.01h5.81a24.7,24.7,0,0,0,22.239,14H34.8l.093,0h.033l.069,0h.037l.091,0h.033l.065,0,.044,0,.062,0,.055,0,.069,0,.045,0,.058,0,.04,0,.086,0,.048,0,.051,0,.047,0,.076,0,.057,0,.047,0,.052,0,.047,0,.085-.006.045,0,.053,0,.042,0,.09-.007.042,0,.054,0,.043,0,.054,0,.079-.007.053-.005.042,0,.052-.005.052-.005.082-.009.041,0,.056-.006.038,0,.09-.01.042,0,.054-.006.042-.005.086-.011.045-.006.056-.007.037,0,.056-.007.036,0,.1-.013.038-.005.056-.008.034,0,.1-.014.04-.006.052-.008.046-.007.076-.012.052-.008.052-.008.041-.007.052-.009.08-.013.047-.008.047-.008.047-.008.075-.013.047-.009.054-.01.045-.008.061-.011.051-.01.066-.013.043-.008.055-.011.039-.008.085-.017.037-.008.063-.013.034-.007.087-.018.033-.007.063-.013.035-.008.078-.017.038-.008.068-.015.034-.008.078-.018.015,0,.094-.022.027-.006.074-.018.024-.006.092-.022.024-.006.074-.018.025-.006.095-.024.011,0,.086-.022.022-.006.193-.051.018,0,.093-.025h0l.1-.027.015,0,.093-.026h0l.1-.03h0l.1-.029.008,0,.2-.06.008,0A24.789,24.789,0,0,0,56.572,40.667h0A24.516,24.516,0,0,0,59,30h5.333a29.829,29.829,0,0,1-1.951,10.667h0l-.085.219-.008.019-.014.035q-.1.266-.214.531l-.008.019-.015.037-.02.048-.011.026-.032.077A29.973,29.973,0,0,1,34.334,60ZM26.808,47.814a19.4,19.4,0,1,1,7.525,1.519A19.271,19.271,0,0,1,26.808,47.814ZM20.333,30a14,14,0,0,0,27.6,3.333H33.667V26.666H47.933A14,14,0,0,0,20.333,30ZM4.4,32H-4V25.333H4.692a29.655,29.655,0,0,1,1.593-6h0q.193-.508.406-1.01a30.025,30.025,0,0,1,52.135-5.656H70.333v6.667H56.572a24.7,24.7,0,0,0-22.239-14h-.464l-.1,0h-.024l-.081,0h-.027l-.1,0h-.01l-.094,0h-.024l-.1,0h-.005l-.1,0h-.024l-.086,0h-.019l-.1.005h-.017l-.089.005h-.02l-.1.006h-.011l-.094.006h-.019l-.207.015-.021,0-.1.008h0l-.1.009-.018,0-.093.008h-.012l-.1.01h-.012l-.093.009-.017,0-.21.022h-.012l-.214.024h-.008l-.217.027h0l-.109.014h0l-.219.03h0l-.219.032h0A24.726,24.726,0,0,0,13.11,17.44l0,.005-.1.176L13,17.636l-.042.072-.01.017-.047.082-.01.017-.037.065-.015.026-.043.076-.018.032-.027.048-.023.041-.021.039-.046.084-.011.021-.03.055-.01.019-.1.182,0,.007A24.517,24.517,0,0,0,9.667,30q0,1.01.08,2Z" transform="translate(4)" fill="#ffe5e8"/>
</svg>
