<svg xmlns="http://www.w3.org/2000/svg" width="403" height="403" viewBox="0 0 403 403">
  <path id="gray" d="M377.887,402.985q-.074-.927-.074-1.873a23.3,23.3,0,0,1,23.3-23.3q.946,0,1.873.074c.011.289.015.58.015.87A24.243,24.243,0,0,1,378.757,403C378.467,403,378.175,403,377.887,402.985Zm-25.261-24.228c0-.29,0-.581.015-.87q.927-.074,1.874-.074a23.3,23.3,0,0,1,23.3,23.3q0,.946-.074,1.873c-.289.011-.578.015-.87.015A24.243,24.243,0,0,1,352.626,378.757Zm-25.113,24.228q-.074-.927-.076-1.873a23.3,23.3,0,0,1,23.3-23.3q.946,0,1.874.074c.01.289.015.58.015.87A24.243,24.243,0,0,1,328.382,403C328.091,403,327.8,403,327.513,402.985ZM302.25,378.757c0-.29.005-.581.015-.87q.927-.074,1.874-.074a23.3,23.3,0,0,1,23.3,23.3q0,.946-.074,1.873c-.289.011-.578.015-.87.015A24.243,24.243,0,0,1,302.25,378.757Zm-25.113,24.228q-.074-.927-.074-1.873a23.3,23.3,0,0,1,23.3-23.3q.946,0,1.874.074c.01.289.015.58.015.87A24.243,24.243,0,0,1,278.007,403C277.716,403,277.426,403,277.137,402.985Zm-25.263-24.228c0-.29.005-.581.015-.87q.927-.074,1.874-.074a23.3,23.3,0,0,1,23.3,23.3c0,.631-.026,1.254-.074,1.873-.289.011-.58.015-.871.015A24.243,24.243,0,0,1,251.875,378.757Zm-25.113,24.228q-.074-.927-.074-1.873a23.3,23.3,0,0,1,23.3-23.3q.946,0,1.873.074c.011.289.015.58.015.87A24.243,24.243,0,0,1,227.631,403C227.342,403,227.05,403,226.762,402.985ZM201.5,378.757c0-.29,0-.581.015-.87q.927-.074,1.874-.074a23.3,23.3,0,0,1,23.3,23.3q0,.946-.074,1.873c-.288.011-.578.015-.87.015A24.243,24.243,0,0,1,201.5,378.757Zm-25.113,24.228q-.074-.927-.076-1.873a23.3,23.3,0,0,1,23.3-23.3q.946,0,1.874.074c.01.289.015.58.015.87A24.243,24.243,0,0,1,177.257,403C176.966,403,176.675,403,176.388,402.985Zm-25.263-24.228c0-.29.005-.581.015-.87q.927-.074,1.874-.074a23.3,23.3,0,0,1,23.3,23.3q0,.946-.074,1.873c-.289.011-.578.015-.87.015A24.243,24.243,0,0,1,151.125,378.757Zm-25.113,24.228q-.074-.927-.074-1.873a23.3,23.3,0,0,1,23.3-23.3q.946,0,1.874.074c.01.289.015.58.015.87A24.243,24.243,0,0,1,126.882,403C126.591,403,126.3,403,126.012,402.985ZM100.75,378.757c0-.29.005-.581.015-.87q.927-.074,1.874-.074a23.3,23.3,0,0,1,23.3,23.3c0,.631-.026,1.254-.074,1.873-.289.011-.58.015-.871.015A24.243,24.243,0,0,1,100.75,378.757ZM75.637,402.985q-.074-.927-.074-1.873a23.3,23.3,0,0,1,23.3-23.3q.946,0,1.873.074c.011.289.015.58.015.87A24.243,24.243,0,0,1,76.506,403C76.216,403,75.925,403,75.637,402.985ZM50.375,378.757c0-.29,0-.581.015-.87q.927-.074,1.874-.074a23.3,23.3,0,0,1,23.3,23.3q0,.946-.074,1.873c-.289.011-.578.015-.87.015A24.243,24.243,0,0,1,50.375,378.757ZM25.263,402.985q-.074-.927-.076-1.873a23.3,23.3,0,0,1,23.3-23.3q.946,0,1.874.074c.01.289.015.58.015.87A24.243,24.243,0,0,1,26.132,403C25.841,403,25.55,403,25.263,402.985ZM0,378.757c0-.29.005-.581.015-.87q.927-.074,1.874-.074a23.3,23.3,0,0,1,23.3,23.3q0,.946-.074,1.873c-.289.011-.578.015-.87.015A24.243,24.243,0,0,1,0,378.757Zm377.813-24.242q0-.946.074-1.874c.289-.011.58-.015.87-.015A24.243,24.243,0,0,1,403,376.869c0,.291,0,.581-.015.87q-.927.074-1.873.074A23.3,23.3,0,0,1,377.813,354.515Zm-25.172,23.224c-.011-.289-.015-.578-.015-.87a24.243,24.243,0,0,1,24.243-24.243c.291,0,.581,0,.87.015q.074.927.074,1.874a23.3,23.3,0,0,1-23.3,23.3Q353.569,377.813,352.641,377.738Zm-25.2-23.224q0-.946.076-1.874c.287-.011.578-.015.87-.015-.291,0-.583-.005-.87-.015q-.074-.927-.076-1.874a23.3,23.3,0,0,1,23.3-23.3q.946,0,1.874.074.014.433.015.87a24.243,24.243,0,0,1-24.243,24.243,24.243,24.243,0,0,1,24.243,24.243q0,.437-.015.87-.927.074-1.874.074A23.3,23.3,0,0,1,327.437,354.515Zm-25.172,23.224q-.014-.433-.015-.87a24.243,24.243,0,0,1,24.243-24.243,24.243,24.243,0,0,1-24.243-24.243c0-.291.005-.583.015-.87q.927-.074,1.874-.076a23.3,23.3,0,0,1,23.3,23.3q0,.946-.074,1.874-.433.014-.87.015c.291,0,.581,0,.87.015q.074.927.074,1.874a23.3,23.3,0,0,1-23.3,23.3Q303.193,377.813,302.265,377.738Zm-25.2-23.224q0-.946.074-1.874c.288-.011.578-.015.87-.015a24.243,24.243,0,0,1,24.243,24.243q0,.437-.015.87-.927.074-1.874.074A23.3,23.3,0,0,1,277.063,354.515ZM251.89,377.738q-.014-.433-.015-.87a24.243,24.243,0,0,1,24.243-24.243c.291,0,.583,0,.871.015.048.618.074,1.243.074,1.874a23.3,23.3,0,0,1-23.3,23.3Q252.818,377.813,251.89,377.738Zm-25.2-23.224q0-.946.074-1.874c.289-.011.58-.015.87-.015-.29,0-.581-.005-.87-.015q-.074-.927-.074-1.874a23.3,23.3,0,0,1,23.3-23.3q.946,0,1.873.074c.011.289.015.578.015.87a24.243,24.243,0,0,1-24.243,24.243,24.243,24.243,0,0,1,24.243,24.243c0,.291,0,.581-.015.87q-.927.074-1.873.074A23.3,23.3,0,0,1,226.688,354.515Zm-25.172,23.224c-.011-.289-.015-.578-.015-.87a24.243,24.243,0,0,1,24.243-24.243A24.243,24.243,0,0,1,201.5,328.382c0-.291,0-.583.015-.87q.927-.074,1.874-.076a23.3,23.3,0,0,1,23.3,23.3q0,.946-.074,1.874-.433.014-.87.015c.291,0,.581,0,.87.015q.074.927.074,1.874a23.3,23.3,0,0,1-23.3,23.3Q202.444,377.813,201.516,377.738Zm-25.2-23.224q0-.946.076-1.874c.287-.011.578-.015.87-.015A24.243,24.243,0,0,1,201.5,376.869q0,.437-.015.87-.927.074-1.874.074A23.3,23.3,0,0,1,176.312,354.515ZM151.14,377.738q-.014-.433-.015-.87a24.243,24.243,0,0,1,24.243-24.243c.291,0,.581,0,.87.015q.074.927.074,1.874a23.3,23.3,0,0,1-23.3,23.3Q152.068,377.813,151.14,377.738Zm-25.2-23.224q0-.946.074-1.874c.289-.011.578-.015.87-.015q-.437,0-.87-.015-.074-.927-.074-1.874a23.3,23.3,0,0,1,23.3-23.3q.946,0,1.874.074.014.433.015.87a24.243,24.243,0,0,1-24.243,24.243,24.243,24.243,0,0,1,24.243,24.243q0,.437-.015.87-.927.074-1.874.074A23.3,23.3,0,0,1,125.938,354.515Zm-25.173,23.224q-.014-.433-.015-.87a24.243,24.243,0,0,1,24.243-24.243,24.244,24.244,0,0,1-24.243-24.243c0-.291.005-.583.015-.87q.927-.074,1.874-.076a23.3,23.3,0,0,1,23.3,23.3c0,.631-.026,1.256-.074,1.874-.289.01-.58.015-.871.015.291,0,.583,0,.871.015.048.618.074,1.243.074,1.874a23.3,23.3,0,0,1-23.3,23.3Q101.693,377.813,100.765,377.738Zm-25.2-23.224q0-.946.074-1.874c.289-.011.58-.015.87-.015a24.243,24.243,0,0,1,24.243,24.243c0,.291,0,.581-.015.87q-.927.074-1.873.074A23.3,23.3,0,0,1,75.563,354.515ZM50.391,377.738c-.011-.289-.015-.578-.015-.87a24.243,24.243,0,0,1,24.243-24.243c.291,0,.581,0,.87.015q.074.927.074,1.874a23.3,23.3,0,0,1-23.3,23.3Q51.319,377.813,50.391,377.738Zm-25.2-23.224q0-.946.076-1.874c.287-.011.578-.015.87-.015-.291,0-.583-.005-.87-.015q-.074-.927-.076-1.874a23.3,23.3,0,0,1,23.3-23.3q.946,0,1.874.074.014.433.015.87a24.243,24.243,0,0,1-24.243,24.243,24.243,24.243,0,0,1,24.243,24.243q0,.437-.015.87-.927.074-1.874.074A23.3,23.3,0,0,1,25.187,354.515ZM.015,377.738Q0,377.306,0,376.869a24.243,24.243,0,0,1,24.243-24.243A24.243,24.243,0,0,1,0,328.382c0-.291.005-.583.015-.87q.927-.074,1.874-.076a23.3,23.3,0,0,1,23.3,23.3q0,.946-.074,1.874-.433.014-.87.015c.291,0,.581,0,.87.015q.074.927.074,1.874a23.3,23.3,0,0,1-23.3,23.3Q.943,377.813.015,377.738ZM377.887,352.61q-.074-.927-.074-1.874a23.3,23.3,0,0,1,23.3-23.3q.946,0,1.873.074c.011.289.015.578.015.87a24.243,24.243,0,0,1-24.243,24.243C378.467,352.626,378.175,352.62,377.887,352.61Zm-25.261-24.228c0-.291,0-.583.015-.87q.927-.074,1.874-.076a23.3,23.3,0,0,1,23.3,23.3q0,.946-.074,1.874-.433.014-.87.015A24.243,24.243,0,0,1,352.626,328.382ZM277.137,352.61q-.074-.927-.074-1.874a23.3,23.3,0,0,1,23.3-23.3q.946,0,1.874.074.014.433.015.87a24.243,24.243,0,0,1-24.243,24.243Q277.57,352.626,277.137,352.61Zm-25.263-24.228c0-.291.005-.583.015-.87q.927-.074,1.874-.076a23.3,23.3,0,0,1,23.3,23.3c0,.631-.026,1.256-.074,1.874-.289.01-.58.015-.871.015A24.244,24.244,0,0,1,251.875,328.382ZM176.388,352.61q-.074-.927-.076-1.874a23.3,23.3,0,0,1,23.3-23.3q.946,0,1.874.074.014.433.015.87a24.243,24.243,0,0,1-24.243,24.243C176.966,352.626,176.675,352.62,176.388,352.61Zm-25.263-24.228c0-.291.005-.583.015-.87q.927-.074,1.874-.076a23.3,23.3,0,0,1,23.3,23.3q0,.946-.074,1.874-.433.014-.87.015A24.243,24.243,0,0,1,151.125,328.382ZM75.637,352.61q-.074-.927-.074-1.874a23.3,23.3,0,0,1,23.3-23.3q.946,0,1.873.074c.011.289.015.578.015.87a24.243,24.243,0,0,1-24.243,24.243C76.216,352.626,75.925,352.62,75.637,352.61ZM50.375,328.382c0-.291,0-.583.015-.87q.927-.074,1.874-.076a23.3,23.3,0,0,1,23.3,23.3q0,.946-.074,1.874-.433.014-.87.015A24.243,24.243,0,0,1,50.375,328.382Zm327.437-24.243q0-.946.074-1.874c.289-.01.58-.015.87-.015A24.243,24.243,0,0,1,403,326.493c0,.291,0,.581-.015.87q-.927.074-1.873.074A23.3,23.3,0,0,1,377.813,304.139Zm-25.172,23.224c-.011-.289-.015-.578-.015-.87a24.243,24.243,0,0,1,24.243-24.243q.437,0,.87.015.074.927.074,1.874a23.3,23.3,0,0,1-23.3,23.3Q353.569,327.437,352.641,327.363Zm-25.2-23.224q0-.946.076-1.874c.287-.01.578-.015.87-.015a24.243,24.243,0,0,1,24.243,24.243q0,.437-.015.87-.927.074-1.874.074A23.3,23.3,0,0,1,327.437,304.139Zm-25.172,23.224q-.014-.433-.015-.87a24.243,24.243,0,0,1,24.243-24.243q.437,0,.87.015.074.927.074,1.874a23.3,23.3,0,0,1-23.3,23.3Q303.193,327.437,302.265,327.363Zm-25.2-23.224q0-.946.074-1.874.433-.014.87-.015a24.243,24.243,0,0,1,24.243,24.243q0,.437-.015.87-.927.074-1.874.074A23.3,23.3,0,0,1,277.063,304.139ZM251.89,327.363q-.014-.433-.015-.87a24.243,24.243,0,0,1,24.243-24.243c.291,0,.583.005.871.015.048.618.074,1.243.074,1.874a23.3,23.3,0,0,1-23.3,23.3Q252.818,327.437,251.89,327.363Zm-25.2-23.224q0-.946.074-1.874c.289-.01.58-.015.87-.015a24.243,24.243,0,0,1,24.243,24.243c0,.291,0,.581-.015.87q-.927.074-1.873.074A23.3,23.3,0,0,1,226.688,304.139Zm-25.172,23.224c-.011-.289-.015-.578-.015-.87a24.243,24.243,0,0,1,24.243-24.243q.437,0,.87.015.074.927.074,1.874a23.3,23.3,0,0,1-23.3,23.3Q202.444,327.437,201.516,327.363Zm-25.2-23.224q0-.946.076-1.874c.287-.01.578-.015.87-.015A24.243,24.243,0,0,1,201.5,326.493q0,.437-.015.87-.927.074-1.874.074A23.3,23.3,0,0,1,176.312,304.139ZM151.14,327.363q-.014-.433-.015-.87a24.243,24.243,0,0,1,24.243-24.243q.437,0,.87.015.074.927.074,1.874a23.3,23.3,0,0,1-23.3,23.3Q152.068,327.437,151.14,327.363Zm-25.2-23.224q0-.946.074-1.874.433-.014.87-.015a24.243,24.243,0,0,1,24.243,24.243q0,.437-.015.87-.927.074-1.874.074A23.3,23.3,0,0,1,125.938,304.139Zm-25.173,23.224q-.014-.433-.015-.87a24.243,24.243,0,0,1,24.243-24.243c.291,0,.583.005.871.015.048.618.074,1.243.074,1.874a23.3,23.3,0,0,1-23.3,23.3Q101.693,327.437,100.765,327.363Zm-25.2-23.224q0-.946.074-1.874c.289-.01.58-.015.87-.015a24.243,24.243,0,0,1,24.243,24.243c0,.291,0,.581-.015.87q-.927.074-1.873.074A23.3,23.3,0,0,1,75.563,304.139ZM50.391,327.363c-.011-.289-.015-.578-.015-.87A24.243,24.243,0,0,1,74.619,302.25q.437,0,.87.015.074.927.074,1.874a23.3,23.3,0,0,1-23.3,23.3Q51.319,327.437,50.391,327.363Zm-25.2-23.224q0-.946.076-1.874c.287-.01.578-.015.87-.015a24.243,24.243,0,0,1,24.243,24.243q0,.437-.015.87-.927.074-1.874.074A23.3,23.3,0,0,1,25.187,304.139ZM.015,327.363Q0,326.93,0,326.493A24.243,24.243,0,0,1,24.243,302.25q.437,0,.87.015.074.927.074,1.874a23.3,23.3,0,0,1-23.3,23.3Q.943,327.437.015,327.363Zm377.872-25.128q-.074-.927-.074-1.874a23.3,23.3,0,0,1,23.3-23.3q.946,0,1.873.074c.011.288.015.578.015.87a24.243,24.243,0,0,1-24.243,24.243C378.467,302.25,378.175,302.245,377.887,302.235Zm-25.261-24.228c0-.291,0-.581.015-.87q.927-.074,1.874-.074a23.3,23.3,0,0,1,23.3,23.3q0,.946-.074,1.874-.433.014-.87.015A24.243,24.243,0,0,1,352.626,278.007Zm-25.113,24.228q-.074-.927-.076-1.874a23.3,23.3,0,0,1,23.3-23.3q.946,0,1.874.074.014.433.015.87a24.243,24.243,0,0,1-24.243,24.243C328.091,302.25,327.8,302.245,327.513,302.235ZM302.25,278.007q0-.437.015-.87.927-.074,1.874-.074a23.3,23.3,0,0,1,23.3,23.3q0,.946-.074,1.874-.433.014-.87.015A24.243,24.243,0,0,1,302.25,278.007Zm-25.113,24.228q-.074-.927-.074-1.874a23.3,23.3,0,0,1,23.3-23.3q.946,0,1.874.074.014.433.015.87a24.243,24.243,0,0,1-24.243,24.243Q277.57,302.25,277.137,302.235Zm-25.263-24.228q0-.437.015-.87.927-.074,1.874-.074a23.3,23.3,0,0,1,23.3,23.3c0,.631-.026,1.256-.074,1.874-.289.01-.58.015-.871.015A24.243,24.243,0,0,1,251.875,278.007Zm-25.113,24.228q-.074-.927-.074-1.874a23.3,23.3,0,0,1,23.3-23.3q.946,0,1.873.074c.011.288.015.578.015.87a24.243,24.243,0,0,1-24.243,24.243C227.342,302.25,227.05,302.245,226.762,302.235ZM201.5,278.007c0-.291,0-.581.015-.87q.927-.074,1.874-.074a23.3,23.3,0,0,1,23.3,23.3q0,.946-.074,1.874-.433.014-.87.015A24.243,24.243,0,0,1,201.5,278.007Zm-25.113,24.228q-.074-.927-.076-1.874a23.3,23.3,0,0,1,23.3-23.3q.946,0,1.874.074.014.433.015.87a24.243,24.243,0,0,1-24.243,24.243C176.966,302.25,176.675,302.245,176.388,302.235Zm-25.263-24.228q0-.437.015-.87.927-.074,1.874-.074a23.3,23.3,0,0,1,23.3,23.3q0,.946-.074,1.874-.433.014-.87.015A24.243,24.243,0,0,1,151.125,278.007Zm-25.113,24.228q-.074-.927-.074-1.874a23.3,23.3,0,0,1,23.3-23.3q.946,0,1.874.074.014.433.015.87a24.243,24.243,0,0,1-24.243,24.243Q126.445,302.25,126.012,302.235ZM100.75,278.007q0-.437.015-.87.927-.074,1.874-.074a23.3,23.3,0,0,1,23.3,23.3c0,.631-.026,1.256-.074,1.874-.289.01-.58.015-.871.015A24.243,24.243,0,0,1,100.75,278.007ZM75.637,302.235q-.074-.927-.074-1.874a23.3,23.3,0,0,1,23.3-23.3q.946,0,1.873.074c.011.288.015.578.015.87A24.243,24.243,0,0,1,76.506,302.25C76.216,302.25,75.925,302.245,75.637,302.235ZM50.375,278.007c0-.291,0-.581.015-.87q.927-.074,1.874-.074a23.3,23.3,0,0,1,23.3,23.3q0,.946-.074,1.874-.433.014-.87.015A24.243,24.243,0,0,1,50.375,278.007ZM25.263,302.235q-.074-.927-.076-1.874a23.3,23.3,0,0,1,23.3-23.3q.946,0,1.874.074.014.433.015.87A24.243,24.243,0,0,1,26.132,302.25C25.841,302.25,25.55,302.245,25.263,302.235ZM0,278.007q0-.437.015-.87.927-.074,1.874-.074a23.3,23.3,0,0,1,23.3,23.3q0,.946-.074,1.874-.433.014-.87.015A24.243,24.243,0,0,1,0,278.007Zm377.813-24.243q0-.946.074-1.873c.289-.011.58-.016.87-.016A24.243,24.243,0,0,1,403,276.118c0,.291,0,.583-.015.871-.618.048-1.242.074-1.873.074A23.3,23.3,0,0,1,377.813,253.764Zm-25.172,23.225c-.011-.289-.015-.58-.015-.871a24.243,24.243,0,0,1,24.243-24.243q.437,0,.87.015.074.927.074,1.874a23.3,23.3,0,0,1-23.3,23.3C353.884,277.063,353.259,277.037,352.641,276.989Zm-25.2-23.225q0-.946.076-1.873c.287-.011.578-.016.87-.016-.291,0-.583,0-.87-.015q-.074-.927-.076-1.873a23.3,23.3,0,0,1,23.3-23.3q.946,0,1.874.074c.01.289.015.58.015.87a24.243,24.243,0,0,1-24.243,24.243,24.243,24.243,0,0,1,24.243,24.243c0,.291-.005.583-.015.871-.618.048-1.243.074-1.874.074A23.3,23.3,0,0,1,327.437,253.764Zm-25.172,23.225c-.01-.289-.015-.58-.015-.871a24.243,24.243,0,0,1,24.243-24.243,24.243,24.243,0,0,1-24.243-24.243c0-.29.005-.581.015-.87q.927-.074,1.874-.074a23.3,23.3,0,0,1,23.3,23.3q0,.946-.074,1.873c-.289.011-.578.015-.87.015q.437,0,.87.015.074.927.074,1.874a23.3,23.3,0,0,1-23.3,23.3C303.509,277.063,302.883,277.037,302.265,276.989Zm-25.2-23.225q0-.946.074-1.873.433-.016.87-.016a24.243,24.243,0,0,1,24.243,24.243c0,.291-.005.583-.015.871-.618.048-1.243.074-1.874.074A23.3,23.3,0,0,1,277.063,253.764ZM251.89,276.989c-.01-.289-.015-.58-.015-.871a24.244,24.244,0,0,1,24.243-24.243c.291,0,.583.005.871.015.048.618.074,1.243.074,1.874a23.3,23.3,0,0,1-23.3,23.3C253.133,277.063,252.508,277.037,251.89,276.989Zm-25.2-23.225q0-.946.074-1.873c.289-.011.58-.016.87-.016-.29,0-.581,0-.87-.015q-.074-.927-.074-1.873a23.3,23.3,0,0,1,23.3-23.3q.946,0,1.873.074c.011.289.015.58.015.87a24.243,24.243,0,0,1-24.243,24.243,24.243,24.243,0,0,1,24.243,24.243c0,.291,0,.583-.015.871-.618.048-1.242.074-1.873.074A23.3,23.3,0,0,1,226.688,253.764Zm-25.172,23.225c-.011-.289-.015-.58-.015-.871a24.243,24.243,0,0,1,24.243-24.243A24.243,24.243,0,0,1,201.5,227.631c0-.29,0-.581.015-.87q.927-.074,1.874-.074a23.3,23.3,0,0,1,23.3,23.3q0,.946-.074,1.873c-.288.011-.578.015-.87.015q.437,0,.87.015.074.927.074,1.874a23.3,23.3,0,0,1-23.3,23.3C202.759,277.063,202.134,277.037,201.516,276.989Zm-25.2-23.225q0-.946.076-1.873c.287-.011.578-.016.87-.016A24.243,24.243,0,0,1,201.5,276.118c0,.291-.005.583-.015.871-.618.048-1.243.074-1.874.074A23.3,23.3,0,0,1,176.312,253.764ZM151.14,276.989c-.01-.289-.015-.58-.015-.871a24.243,24.243,0,0,1,24.243-24.243q.437,0,.87.015.074.927.074,1.874a23.3,23.3,0,0,1-23.3,23.3C152.384,277.063,151.758,277.037,151.14,276.989Zm-25.2-23.225q0-.946.074-1.873.433-.016.87-.016c-.291,0-.581,0-.87-.015q-.074-.927-.074-1.873a23.3,23.3,0,0,1,23.3-23.3q.946,0,1.874.074c.01.289.015.58.015.87a24.243,24.243,0,0,1-24.243,24.243,24.243,24.243,0,0,1,24.243,24.243c0,.291-.006.583-.015.871-.618.048-1.243.074-1.874.074A23.3,23.3,0,0,1,125.938,253.764Zm-25.173,23.225c-.01-.289-.015-.58-.015-.871a24.244,24.244,0,0,1,24.243-24.243,24.243,24.243,0,0,1-24.243-24.243c0-.29.005-.581.015-.87q.927-.074,1.874-.074a23.3,23.3,0,0,1,23.3,23.3c0,.631-.026,1.254-.074,1.873-.289.011-.58.015-.871.015.291,0,.583.005.871.015.048.618.074,1.243.074,1.874a23.3,23.3,0,0,1-23.3,23.3C102.008,277.063,101.383,277.037,100.765,276.989Zm-25.2-23.225q0-.946.074-1.873c.289-.011.58-.016.87-.016a24.243,24.243,0,0,1,24.243,24.243c0,.291,0,.583-.015.871-.618.048-1.242.074-1.873.074A23.3,23.3,0,0,1,75.563,253.764ZM50.391,276.989c-.011-.289-.015-.58-.015-.871a24.243,24.243,0,0,1,24.243-24.243q.437,0,.87.015.074.927.074,1.874a23.3,23.3,0,0,1-23.3,23.3C51.634,277.063,51.009,277.037,50.391,276.989Zm-25.2-23.225q0-.946.076-1.873c.287-.011.578-.016.87-.016-.291,0-.583,0-.87-.015q-.074-.927-.076-1.873a23.3,23.3,0,0,1,23.3-23.3q.946,0,1.874.074c.01.289.015.58.015.87a24.243,24.243,0,0,1-24.243,24.243,24.243,24.243,0,0,1,24.243,24.243c0,.291-.005.583-.015.871-.618.048-1.243.074-1.874.074A23.3,23.3,0,0,1,25.187,253.764ZM.015,276.989c-.01-.289-.015-.58-.015-.871a24.243,24.243,0,0,1,24.243-24.243A24.243,24.243,0,0,1,0,227.631c0-.29.005-.581.015-.87q.927-.074,1.874-.074a23.3,23.3,0,0,1,23.3,23.3q0,.946-.074,1.873c-.289.011-.578.015-.87.015q.437,0,.87.015.074.927.074,1.874a23.3,23.3,0,0,1-23.3,23.3C1.258,277.063.633,277.037.015,276.989ZM377.887,251.86q-.074-.927-.074-1.873a23.3,23.3,0,0,1,23.3-23.3q.946,0,1.873.074c.011.289.015.58.015.87a24.243,24.243,0,0,1-24.243,24.243C378.467,251.875,378.175,251.871,377.887,251.86Zm-25.261-24.228c0-.29,0-.581.015-.87q.927-.074,1.874-.074a23.3,23.3,0,0,1,23.3,23.3q0,.946-.074,1.873c-.289.011-.578.015-.87.015A24.243,24.243,0,0,1,352.626,227.631ZM277.137,251.86q-.074-.927-.074-1.873a23.3,23.3,0,0,1,23.3-23.3q.946,0,1.874.074c.01.289.015.58.015.87a24.243,24.243,0,0,1-24.243,24.243C277.716,251.875,277.426,251.871,277.137,251.86Zm-25.263-24.228c0-.29.005-.581.015-.87q.927-.074,1.874-.074a23.3,23.3,0,0,1,23.3,23.3c0,.631-.026,1.254-.074,1.873-.289.011-.58.015-.871.015A24.243,24.243,0,0,1,251.875,227.631ZM176.388,251.86q-.074-.927-.076-1.873a23.3,23.3,0,0,1,23.3-23.3q.946,0,1.874.074c.01.289.015.58.015.87a24.243,24.243,0,0,1-24.243,24.243C176.966,251.875,176.675,251.871,176.388,251.86Zm-25.263-24.228c0-.29.005-.581.015-.87q.927-.074,1.874-.074a23.3,23.3,0,0,1,23.3,23.3q0,.946-.074,1.873c-.289.011-.578.015-.87.015A24.243,24.243,0,0,1,151.125,227.631ZM75.637,251.86q-.074-.927-.074-1.873a23.3,23.3,0,0,1,23.3-23.3q.946,0,1.873.074c.011.289.015.58.015.87a24.243,24.243,0,0,1-24.243,24.243C76.216,251.875,75.925,251.871,75.637,251.86ZM50.375,227.631c0-.29,0-.581.015-.87q.927-.074,1.874-.074a23.3,23.3,0,0,1,23.3,23.3q0,.946-.074,1.873c-.289.011-.578.015-.87.015A24.243,24.243,0,0,1,50.375,227.631ZM377.813,203.39q0-.946.074-1.874c.289-.011.58-.015.87-.015A24.243,24.243,0,0,1,403,225.744c0,.291,0,.581-.015.87q-.927.074-1.873.074A23.3,23.3,0,0,1,377.813,203.39Zm-25.172,23.224c-.011-.288-.015-.578-.015-.87A24.243,24.243,0,0,1,376.869,201.5c.291,0,.581,0,.87.015q.074.927.074,1.874a23.3,23.3,0,0,1-23.3,23.3Q353.569,226.688,352.641,226.613Zm-25.2-23.224q0-.946.076-1.874c.287-.011.578-.015.87-.015a24.243,24.243,0,0,1,24.243,24.243q0,.437-.015.87-.927.074-1.874.074A23.3,23.3,0,0,1,327.437,203.39Zm-25.172,23.224q-.014-.433-.015-.87A24.243,24.243,0,0,1,326.493,201.5c.291,0,.581,0,.87.015q.074.927.074,1.874a23.3,23.3,0,0,1-23.3,23.3Q303.193,226.688,302.265,226.613Zm-25.2-23.224q0-.946.074-1.874c.288-.011.578-.015.87-.015a24.243,24.243,0,0,1,24.243,24.243q0,.437-.015.87-.927.074-1.874.074A23.3,23.3,0,0,1,277.063,203.39ZM251.89,226.613q-.014-.433-.015-.87A24.243,24.243,0,0,1,276.118,201.5c.291,0,.583,0,.871.015.048.618.074,1.243.074,1.874a23.3,23.3,0,0,1-23.3,23.3Q252.818,226.688,251.89,226.613Zm-25.2-23.224q0-.946.074-1.874c.289-.011.58-.015.87-.015a24.243,24.243,0,0,1,24.243,24.243c0,.291,0,.581-.015.87q-.927.074-1.873.074A23.3,23.3,0,0,1,226.688,203.39Zm-25.172,23.224c-.011-.288-.015-.578-.015-.87A24.243,24.243,0,0,1,225.744,201.5c.291,0,.581,0,.87.015q.074.927.074,1.874a23.3,23.3,0,0,1-23.3,23.3Q202.444,226.688,201.516,226.613Zm-25.2-23.224q0-.946.076-1.874c.287-.011.578-.015.87-.015A24.243,24.243,0,0,1,201.5,225.744q0,.437-.015.87-.927.074-1.874.074A23.3,23.3,0,0,1,176.312,203.39ZM151.14,226.613q-.014-.433-.015-.87A24.243,24.243,0,0,1,175.368,201.5c.291,0,.581,0,.87.015q.074.927.074,1.874a23.3,23.3,0,0,1-23.3,23.3Q152.068,226.688,151.14,226.613Zm-25.2-23.224q0-.946.074-1.874c.289-.011.578-.015.87-.015a24.243,24.243,0,0,1,24.243,24.243q0,.437-.015.87-.927.074-1.874.074A23.3,23.3,0,0,1,125.938,203.39Zm-25.173,23.224q-.014-.433-.015-.87A24.243,24.243,0,0,1,124.993,201.5c.291,0,.583,0,.871.015.048.618.074,1.243.074,1.874a23.3,23.3,0,0,1-23.3,23.3Q101.693,226.688,100.765,226.613Zm-25.2-23.224q0-.946.074-1.874c.289-.011.58-.015.87-.015a24.243,24.243,0,0,1,24.243,24.243c0,.291,0,.581-.015.87q-.927.074-1.873.074A23.3,23.3,0,0,1,75.563,203.39ZM50.391,226.613c-.011-.288-.015-.578-.015-.87A24.243,24.243,0,0,1,74.619,201.5c.291,0,.581,0,.87.015q.074.927.074,1.874a23.3,23.3,0,0,1-23.3,23.3Q51.319,226.688,50.391,226.613Zm-25.2-23.224q0-.946.076-1.874c.287-.011.578-.015.87-.015a24.243,24.243,0,0,1,24.243,24.243q0,.437-.015.87-.927.074-1.874.074A23.3,23.3,0,0,1,25.187,203.39ZM.015,226.613Q0,226.181,0,225.744A24.243,24.243,0,0,1,24.243,201.5c.291,0,.581,0,.87.015q.074.927.074,1.874a23.3,23.3,0,0,1-23.3,23.3Q.943,226.688.015,226.613Zm377.872-25.128q-.074-.927-.074-1.874a23.3,23.3,0,0,1,23.3-23.3q.946,0,1.873.074c.011.289.015.578.015.87A24.243,24.243,0,0,1,378.757,201.5C378.467,201.5,378.175,201.5,377.887,201.485Zm-25.261-24.228c0-.291,0-.583.015-.87q.927-.074,1.874-.076a23.3,23.3,0,0,1,23.3,23.3q0,.946-.074,1.874-.433.014-.87.015A24.243,24.243,0,0,1,352.626,177.257Zm-25.113,24.228q-.074-.927-.076-1.874a23.3,23.3,0,0,1,23.3-23.3q.946,0,1.874.074.014.433.015.87A24.243,24.243,0,0,1,328.382,201.5C328.091,201.5,327.8,201.5,327.513,201.485ZM302.25,177.257c0-.291.005-.583.015-.87q.927-.074,1.874-.076a23.3,23.3,0,0,1,23.3,23.3q0,.946-.074,1.874-.433.014-.87.015A24.243,24.243,0,0,1,302.25,177.257Zm-25.113,24.228q-.074-.927-.074-1.874a23.3,23.3,0,0,1,23.3-23.3q.946,0,1.874.074.014.433.015.87A24.243,24.243,0,0,1,278.007,201.5Q277.57,201.5,277.137,201.485Zm-25.263-24.228c0-.291.005-.583.015-.87q.927-.074,1.874-.076a23.3,23.3,0,0,1,23.3,23.3c0,.631-.026,1.256-.074,1.874-.289.01-.58.015-.871.015A24.243,24.243,0,0,1,251.875,177.257Zm-25.113,24.228q-.074-.927-.074-1.874a23.3,23.3,0,0,1,23.3-23.3q.946,0,1.873.074c.011.289.015.578.015.87A24.243,24.243,0,0,1,227.631,201.5C227.342,201.5,227.05,201.5,226.762,201.485ZM201.5,177.257c0-.291,0-.583.015-.87q.927-.074,1.874-.076a23.3,23.3,0,0,1,23.3,23.3q0,.946-.074,1.874-.433.014-.87.015A24.243,24.243,0,0,1,201.5,177.257Zm-25.113,24.228q-.074-.927-.076-1.874a23.3,23.3,0,0,1,23.3-23.3q.946,0,1.874.074.014.433.015.87A24.243,24.243,0,0,1,177.257,201.5C176.966,201.5,176.675,201.5,176.388,201.485Zm-25.263-24.228c0-.291.005-.583.015-.87q.927-.074,1.874-.076a23.3,23.3,0,0,1,23.3,23.3q0,.946-.074,1.874-.433.014-.87.015A24.243,24.243,0,0,1,151.125,177.257Zm-25.113,24.228q-.074-.927-.074-1.874a23.3,23.3,0,0,1,23.3-23.3q.946,0,1.874.074.014.433.015.87A24.243,24.243,0,0,1,126.882,201.5Q126.445,201.5,126.012,201.485ZM100.75,177.257c0-.291.005-.583.015-.87q.927-.074,1.874-.076a23.3,23.3,0,0,1,23.3,23.3c0,.631-.026,1.256-.074,1.874-.289.01-.58.015-.871.015A24.243,24.243,0,0,1,100.75,177.257ZM75.637,201.485q-.074-.927-.074-1.874a23.3,23.3,0,0,1,23.3-23.3q.946,0,1.873.074c.011.289.015.578.015.87A24.243,24.243,0,0,1,76.506,201.5C76.216,201.5,75.925,201.5,75.637,201.485ZM50.375,177.257c0-.291,0-.583.015-.87q.927-.074,1.874-.076a23.3,23.3,0,0,1,23.3,23.3q0,.946-.074,1.874-.433.014-.87.015A24.243,24.243,0,0,1,50.375,177.257ZM25.263,201.485q-.074-.927-.076-1.874a23.3,23.3,0,0,1,23.3-23.3q.946,0,1.874.074.014.433.015.87A24.243,24.243,0,0,1,26.132,201.5C25.841,201.5,25.55,201.5,25.263,201.485ZM0,177.257c0-.291.005-.583.015-.87q.927-.074,1.874-.076a23.3,23.3,0,0,1,23.3,23.3q0,.946-.074,1.874-.433.014-.87.015A24.243,24.243,0,0,1,0,177.257Zm377.813-24.243q0-.946.074-1.874c.289-.01.58-.015.87-.015A24.243,24.243,0,0,1,403,175.368c0,.291,0,.581-.015.87q-.927.074-1.873.074A23.3,23.3,0,0,1,377.813,153.014Zm-25.172,23.224c-.011-.289-.015-.578-.015-.87a24.243,24.243,0,0,1,24.243-24.243q.437,0,.87.015.074.927.074,1.874a23.3,23.3,0,0,1-23.3,23.3Q353.569,176.312,352.641,176.238Zm-25.2-23.224q0-.946.076-1.874c.287-.01.578-.015.87-.015-.291,0-.583-.006-.87-.015q-.074-.927-.076-1.874a23.3,23.3,0,0,1,23.3-23.3q.946,0,1.874.074.014.433.015.87a24.243,24.243,0,0,1-24.243,24.243,24.243,24.243,0,0,1,24.243,24.243q0,.437-.015.87-.927.074-1.874.074A23.3,23.3,0,0,1,327.437,153.014Zm-25.172,23.224q-.014-.433-.015-.87a24.243,24.243,0,0,1,24.243-24.243,24.243,24.243,0,0,1-24.243-24.243q0-.437.015-.87.927-.074,1.874-.074a23.3,23.3,0,0,1,23.3,23.3q0,.946-.074,1.874-.433.014-.87.015.437,0,.87.015.074.927.074,1.874a23.3,23.3,0,0,1-23.3,23.3Q303.193,176.312,302.265,176.238Zm-25.2-23.224q0-.946.074-1.874.433-.014.87-.015a24.243,24.243,0,0,1,24.243,24.243q0,.437-.015.87-.927.074-1.874.074A23.3,23.3,0,0,1,277.063,153.014ZM251.89,176.238q-.014-.433-.015-.87a24.243,24.243,0,0,1,24.243-24.243c.291,0,.583.005.871.015.048.618.074,1.243.074,1.874a23.3,23.3,0,0,1-23.3,23.3Q252.818,176.312,251.89,176.238Zm-25.2-23.224q0-.946.074-1.874c.289-.01.58-.015.87-.015-.29,0-.581-.006-.87-.015q-.074-.927-.074-1.874a23.3,23.3,0,0,1,23.3-23.3q.946,0,1.873.074c.011.289.015.578.015.87a24.243,24.243,0,0,1-24.243,24.243,24.243,24.243,0,0,1,24.243,24.243c0,.291,0,.581-.015.87q-.927.074-1.873.074A23.3,23.3,0,0,1,226.688,153.014Zm-25.172,23.224c-.011-.289-.015-.578-.015-.87a24.243,24.243,0,0,1,24.243-24.243A24.243,24.243,0,0,1,201.5,126.882c0-.291,0-.581.015-.87q.927-.074,1.874-.074a23.3,23.3,0,0,1,23.3,23.3q0,.946-.074,1.874-.433.014-.87.015.437,0,.87.015.074.927.074,1.874a23.3,23.3,0,0,1-23.3,23.3Q202.444,176.312,201.516,176.238Zm-25.2-23.224q0-.946.076-1.874c.287-.01.578-.015.87-.015A24.243,24.243,0,0,1,201.5,175.368q0,.437-.015.87-.927.074-1.874.074A23.3,23.3,0,0,1,176.312,153.014ZM151.14,176.238q-.014-.433-.015-.87a24.243,24.243,0,0,1,24.243-24.243q.437,0,.87.015.074.927.074,1.874a23.3,23.3,0,0,1-23.3,23.3Q152.068,176.312,151.14,176.238Zm-25.2-23.224q0-.946.074-1.874.433-.014.87-.015-.437,0-.87-.015-.074-.927-.074-1.874a23.3,23.3,0,0,1,23.3-23.3q.946,0,1.874.074.014.433.015.87a24.243,24.243,0,0,1-24.243,24.243,24.243,24.243,0,0,1,24.243,24.243q0,.437-.015.87-.927.074-1.874.074A23.3,23.3,0,0,1,125.938,153.014Zm-25.173,23.224q-.014-.433-.015-.87a24.243,24.243,0,0,1,24.243-24.243,24.243,24.243,0,0,1-24.243-24.243q0-.437.015-.87.927-.074,1.874-.074a23.3,23.3,0,0,1,23.3,23.3c0,.631-.026,1.256-.074,1.874-.289.01-.58.015-.871.015.291,0,.583.005.871.015.048.618.074,1.243.074,1.874a23.3,23.3,0,0,1-23.3,23.3Q101.693,176.312,100.765,176.238Zm-25.2-23.224q0-.946.074-1.874c.289-.01.58-.015.87-.015a24.243,24.243,0,0,1,24.243,24.243c0,.291,0,.581-.015.87q-.927.074-1.873.074A23.3,23.3,0,0,1,75.563,153.014ZM50.391,176.238c-.011-.289-.015-.578-.015-.87a24.243,24.243,0,0,1,24.243-24.243q.437,0,.87.015.074.927.074,1.874a23.3,23.3,0,0,1-23.3,23.3Q51.319,176.312,50.391,176.238Zm-25.2-23.224q0-.946.076-1.874c.287-.01.578-.015.87-.015-.291,0-.583-.006-.87-.015q-.074-.927-.076-1.874a23.3,23.3,0,0,1,23.3-23.3q.946,0,1.874.074.014.433.015.87a24.243,24.243,0,0,1-24.243,24.243,24.243,24.243,0,0,1,24.243,24.243q0,.437-.015.87-.927.074-1.874.074A23.3,23.3,0,0,1,25.187,153.014ZM.015,176.238Q0,175.805,0,175.368a24.243,24.243,0,0,1,24.243-24.243A24.243,24.243,0,0,1,0,126.882q0-.437.015-.87.927-.074,1.874-.074a23.3,23.3,0,0,1,23.3,23.3q0,.946-.074,1.874-.433.014-.87.015.437,0,.87.015.074.927.074,1.874a23.3,23.3,0,0,1-23.3,23.3Q.943,176.312.015,176.238ZM377.887,151.11q-.074-.927-.074-1.874a23.3,23.3,0,0,1,23.3-23.3q.946,0,1.873.074c.011.289.015.578.015.87a24.243,24.243,0,0,1-24.243,24.243C378.467,151.125,378.175,151.12,377.887,151.11Zm-25.261-24.228c0-.291,0-.581.015-.87q.927-.074,1.874-.074a23.3,23.3,0,0,1,23.3,23.3q0,.946-.074,1.874-.433.014-.87.015A24.243,24.243,0,0,1,352.626,126.882ZM277.137,151.11q-.074-.927-.074-1.874a23.3,23.3,0,0,1,23.3-23.3q.946,0,1.874.074.014.433.015.87a24.243,24.243,0,0,1-24.243,24.243Q277.57,151.125,277.137,151.11Zm-25.263-24.228q0-.437.015-.87.927-.074,1.874-.074a23.3,23.3,0,0,1,23.3,23.3c0,.631-.026,1.256-.074,1.874-.289.01-.58.015-.871.015A24.243,24.243,0,0,1,251.875,126.882ZM176.388,151.11q-.074-.927-.076-1.874a23.3,23.3,0,0,1,23.3-23.3q.946,0,1.874.074.014.433.015.87a24.243,24.243,0,0,1-24.243,24.243C176.966,151.125,176.675,151.12,176.388,151.11Zm-25.263-24.228q0-.437.015-.87.927-.074,1.874-.074a23.3,23.3,0,0,1,23.3,23.3q0,.946-.074,1.874-.433.014-.87.015A24.243,24.243,0,0,1,151.125,126.882ZM75.637,151.11q-.074-.927-.074-1.874a23.3,23.3,0,0,1,23.3-23.3q.946,0,1.873.074c.011.289.015.578.015.87a24.243,24.243,0,0,1-24.243,24.243C76.216,151.125,75.925,151.12,75.637,151.11ZM50.375,126.882c0-.291,0-.581.015-.87q.927-.074,1.874-.074a23.3,23.3,0,0,1,23.3,23.3q0,.946-.074,1.874-.433.014-.87.015A24.243,24.243,0,0,1,50.375,126.882Zm327.437-24.243q0-.946.074-1.873c.289-.011.58-.016.87-.016A24.243,24.243,0,0,1,403,124.993c0,.291,0,.583-.015.871-.618.048-1.242.074-1.873.074A23.3,23.3,0,0,1,377.813,102.639Zm-25.172,23.225c-.011-.289-.015-.58-.015-.871a24.243,24.243,0,0,1,24.243-24.243q.437,0,.87.015.074.927.074,1.874a23.3,23.3,0,0,1-23.3,23.3C353.884,125.938,353.259,125.912,352.641,125.864Zm-25.2-23.225q0-.946.076-1.873c.287-.011.578-.016.87-.016a24.243,24.243,0,0,1,24.243,24.243c0,.291-.005.583-.015.871-.618.048-1.243.074-1.874.074A23.3,23.3,0,0,1,327.437,102.639Zm-25.172,23.225c-.01-.289-.015-.58-.015-.871a24.243,24.243,0,0,1,24.243-24.243q.437,0,.87.015.074.927.074,1.874a23.3,23.3,0,0,1-23.3,23.3C303.509,125.938,302.883,125.912,302.265,125.864Zm-25.2-23.225q0-.946.074-1.873.433-.016.87-.016a24.243,24.243,0,0,1,24.243,24.243c0,.291-.005.583-.015.871-.618.048-1.243.074-1.874.074A23.3,23.3,0,0,1,277.063,102.639ZM251.89,125.864c-.01-.289-.015-.58-.015-.871a24.244,24.244,0,0,1,24.243-24.243c.291,0,.583.005.871.015.048.618.074,1.243.074,1.874a23.3,23.3,0,0,1-23.3,23.3C253.133,125.938,252.508,125.912,251.89,125.864Zm-25.2-23.225q0-.946.074-1.873c.289-.011.58-.016.87-.016a24.243,24.243,0,0,1,24.243,24.243c0,.291,0,.583-.015.871-.618.048-1.242.074-1.873.074A23.3,23.3,0,0,1,226.688,102.639Zm-25.172,23.225c-.011-.289-.015-.58-.015-.871a24.243,24.243,0,0,1,24.243-24.243q.437,0,.87.015.074.927.074,1.874a23.3,23.3,0,0,1-23.3,23.3C202.759,125.938,202.134,125.912,201.516,125.864Zm-25.2-23.225q0-.946.076-1.873c.287-.011.578-.016.87-.016A24.243,24.243,0,0,1,201.5,124.993c0,.291-.005.583-.015.871-.618.048-1.243.074-1.874.074A23.3,23.3,0,0,1,176.312,102.639ZM151.14,125.864c-.01-.289-.015-.58-.015-.871a24.243,24.243,0,0,1,24.243-24.243q.437,0,.87.015.074.927.074,1.874a23.3,23.3,0,0,1-23.3,23.3C152.384,125.938,151.758,125.912,151.14,125.864Zm-25.2-23.225q0-.946.074-1.873.433-.016.87-.016a24.243,24.243,0,0,1,24.243,24.243c0,.291-.006.583-.015.871-.618.048-1.243.074-1.874.074A23.3,23.3,0,0,1,125.938,102.639Zm-25.173,23.225c-.01-.289-.015-.58-.015-.871a24.244,24.244,0,0,1,24.243-24.243c.291,0,.583.005.871.015.048.618.074,1.243.074,1.874a23.3,23.3,0,0,1-23.3,23.3C102.008,125.938,101.383,125.912,100.765,125.864Zm-25.2-23.225q0-.946.074-1.873c.289-.011.58-.016.87-.016a24.243,24.243,0,0,1,24.243,24.243c0,.291,0,.583-.015.871-.618.048-1.242.074-1.873.074A23.3,23.3,0,0,1,75.563,102.639ZM50.391,125.864c-.011-.289-.015-.58-.015-.871A24.243,24.243,0,0,1,74.619,100.75q.437,0,.87.015.074.927.074,1.874a23.3,23.3,0,0,1-23.3,23.3C51.634,125.938,51.009,125.912,50.391,125.864Zm-25.2-23.225q0-.946.076-1.873c.287-.011.578-.016.87-.016a24.243,24.243,0,0,1,24.243,24.243c0,.291-.005.583-.015.871-.618.048-1.243.074-1.874.074A23.3,23.3,0,0,1,25.187,102.639ZM.015,125.864c-.01-.289-.015-.58-.015-.871A24.243,24.243,0,0,1,24.243,100.75q.437,0,.87.015.074.927.074,1.874a23.3,23.3,0,0,1-23.3,23.3C1.258,125.938.633,125.912.015,125.864Zm377.872-25.129q-.074-.927-.074-1.873a23.3,23.3,0,0,1,23.3-23.3q.946,0,1.873.074c.011.289.015.58.015.87a24.243,24.243,0,0,1-24.243,24.243C378.467,100.75,378.175,100.745,377.887,100.734ZM352.626,76.506c0-.29,0-.581.015-.87q.927-.074,1.874-.074a23.3,23.3,0,0,1,23.3,23.3q0,.946-.074,1.873c-.289.011-.578.015-.87.015A24.243,24.243,0,0,1,352.626,76.506Zm-25.113,24.228q-.074-.927-.076-1.873a23.3,23.3,0,0,1,23.3-23.3q.946,0,1.874.074c.01.289.015.58.015.87a24.243,24.243,0,0,1-24.243,24.243C328.091,100.75,327.8,100.745,327.513,100.734ZM302.25,76.506c0-.29.005-.581.015-.87q.927-.074,1.874-.074a23.3,23.3,0,0,1,23.3,23.3q0,.946-.074,1.873c-.289.011-.578.015-.87.015A24.243,24.243,0,0,1,302.25,76.506Zm-25.113,24.228q-.074-.927-.074-1.873a23.3,23.3,0,0,1,23.3-23.3q.946,0,1.874.074c.01.289.015.58.015.87a24.243,24.243,0,0,1-24.243,24.243C277.716,100.75,277.426,100.745,277.137,100.734ZM251.875,76.506c0-.29.005-.581.015-.87q.927-.074,1.874-.074a23.3,23.3,0,0,1,23.3,23.3c0,.631-.026,1.254-.074,1.873-.289.011-.58.015-.871.015A24.243,24.243,0,0,1,251.875,76.506Zm-25.113,24.228q-.074-.927-.074-1.873a23.3,23.3,0,0,1,23.3-23.3q.946,0,1.873.074c.011.289.015.58.015.87a24.243,24.243,0,0,1-24.243,24.243C227.342,100.75,227.05,100.745,226.762,100.734ZM201.5,76.506c0-.29,0-.581.015-.87q.927-.074,1.874-.074a23.3,23.3,0,0,1,23.3,23.3q0,.946-.074,1.873c-.288.011-.578.015-.87.015A24.243,24.243,0,0,1,201.5,76.506Zm-25.113,24.228q-.074-.927-.076-1.873a23.3,23.3,0,0,1,23.3-23.3q.946,0,1.874.074c.01.289.015.58.015.87a24.243,24.243,0,0,1-24.243,24.243C176.966,100.75,176.675,100.745,176.388,100.734ZM151.125,76.506c0-.29.005-.581.015-.87q.927-.074,1.874-.074a23.3,23.3,0,0,1,23.3,23.3q0,.946-.074,1.873c-.289.011-.578.015-.87.015A24.243,24.243,0,0,1,151.125,76.506Zm-25.113,24.228q-.074-.927-.074-1.873a23.3,23.3,0,0,1,23.3-23.3q.946,0,1.874.074c.01.289.015.58.015.87a24.243,24.243,0,0,1-24.243,24.243C126.591,100.75,126.3,100.745,126.012,100.734ZM100.75,76.506c0-.29.005-.581.015-.87q.927-.074,1.874-.074a23.3,23.3,0,0,1,23.3,23.3c0,.631-.026,1.254-.074,1.873-.289.011-.58.015-.871.015A24.243,24.243,0,0,1,100.75,76.506ZM75.637,100.734q-.074-.927-.074-1.873a23.3,23.3,0,0,1,23.3-23.3q.946,0,1.873.074c.011.289.015.58.015.87A24.243,24.243,0,0,1,76.506,100.75C76.216,100.75,75.925,100.745,75.637,100.734ZM50.375,76.506c0-.29,0-.581.015-.87q.927-.074,1.874-.074a23.3,23.3,0,0,1,23.3,23.3q0,.946-.074,1.873c-.289.011-.578.015-.87.015A24.243,24.243,0,0,1,50.375,76.506ZM25.263,100.734q-.074-.927-.076-1.873a23.3,23.3,0,0,1,23.3-23.3q.946,0,1.874.074c.01.289.015.58.015.87A24.243,24.243,0,0,1,26.132,100.75C25.841,100.75,25.55,100.745,25.263,100.734ZM0,76.506c0-.29.005-.581.015-.87q.927-.074,1.874-.074a23.3,23.3,0,0,1,23.3,23.3q0,.946-.074,1.873c-.289.011-.578.015-.87.015A24.243,24.243,0,0,1,0,76.506ZM377.813,52.265q0-.946.074-1.874c.289-.011.58-.015.87-.015A24.243,24.243,0,0,1,403,74.619c0,.291,0,.581-.015.87q-.927.074-1.873.074A23.3,23.3,0,0,1,377.813,52.265ZM352.641,75.488c-.011-.289-.015-.578-.015-.87a24.243,24.243,0,0,1,24.243-24.243c.291,0,.581,0,.87.015q.074.927.074,1.874a23.3,23.3,0,0,1-23.3,23.3Q353.569,75.563,352.641,75.488Zm-25.2-23.224q0-.946.076-1.874c.287-.011.578-.015.87-.015-.291,0-.583-.005-.87-.015q-.074-.927-.076-1.874a23.3,23.3,0,0,1,23.3-23.3q.946,0,1.874.074.014.433.015.87a24.243,24.243,0,0,1-24.243,24.243,24.243,24.243,0,0,1,24.243,24.243q0,.437-.015.87-.927.074-1.874.074A23.3,23.3,0,0,1,327.437,52.265ZM302.265,75.488q-.014-.433-.015-.87a24.243,24.243,0,0,1,24.243-24.243A24.243,24.243,0,0,1,302.25,26.132c0-.291.005-.583.015-.87q.927-.074,1.874-.076a23.3,23.3,0,0,1,23.3,23.3q0,.946-.074,1.874-.433.014-.87.015c.291,0,.581,0,.87.015q.074.927.074,1.874a23.3,23.3,0,0,1-23.3,23.3Q303.193,75.563,302.265,75.488Zm-25.2-23.224q0-.946.074-1.874c.288-.011.578-.015.87-.015A24.243,24.243,0,0,1,302.25,74.619q0,.437-.015.87-.927.074-1.874.074A23.3,23.3,0,0,1,277.063,52.265ZM251.89,75.488q-.014-.433-.015-.87a24.243,24.243,0,0,1,24.243-24.243c.291,0,.583,0,.871.015.048.618.074,1.243.074,1.874a23.3,23.3,0,0,1-23.3,23.3Q252.818,75.563,251.89,75.488Zm-25.2-23.224q0-.946.074-1.874c.289-.011.58-.015.87-.015-.29,0-.581-.005-.87-.015q-.074-.927-.074-1.874a23.3,23.3,0,0,1,23.3-23.3q.946,0,1.873.074c.011.289.015.578.015.87a24.243,24.243,0,0,1-24.243,24.243,24.243,24.243,0,0,1,24.243,24.243c0,.291,0,.581-.015.87q-.927.074-1.873.074A23.3,23.3,0,0,1,226.688,52.265ZM201.516,75.488c-.011-.289-.015-.578-.015-.87a24.243,24.243,0,0,1,24.243-24.243A24.243,24.243,0,0,1,201.5,26.132c0-.291,0-.583.015-.87q.927-.074,1.874-.076a23.3,23.3,0,0,1,23.3,23.3q0,.946-.074,1.874-.433.014-.87.015c.291,0,.581,0,.87.015q.074.927.074,1.874a23.3,23.3,0,0,1-23.3,23.3Q202.444,75.563,201.516,75.488Zm-25.2-23.224q0-.946.076-1.874c.287-.011.578-.015.87-.015A24.243,24.243,0,0,1,201.5,74.619q0,.437-.015.87-.927.074-1.874.074A23.3,23.3,0,0,1,176.312,52.265ZM151.14,75.488q-.014-.433-.015-.87a24.243,24.243,0,0,1,24.243-24.243c.291,0,.581,0,.87.015q.074.927.074,1.874a23.3,23.3,0,0,1-23.3,23.3Q152.068,75.563,151.14,75.488Zm-25.2-23.224q0-.946.074-1.874c.289-.011.578-.015.87-.015q-.437,0-.87-.015-.074-.927-.074-1.874a23.3,23.3,0,0,1,23.3-23.3q.946,0,1.874.074.014.433.015.87a24.243,24.243,0,0,1-24.243,24.243,24.243,24.243,0,0,1,24.243,24.243q0,.437-.015.87-.927.074-1.874.074A23.3,23.3,0,0,1,125.938,52.265ZM100.765,75.488q-.014-.433-.015-.87a24.243,24.243,0,0,1,24.243-24.243A24.243,24.243,0,0,1,100.75,26.132c0-.291.005-.583.015-.87q.927-.074,1.874-.076a23.3,23.3,0,0,1,23.3,23.3c0,.631-.026,1.256-.074,1.874-.289.01-.58.015-.871.015.291,0,.583,0,.871.015.048.618.074,1.243.074,1.874a23.3,23.3,0,0,1-23.3,23.3Q101.693,75.563,100.765,75.488Zm-25.2-23.224q0-.946.074-1.874c.289-.011.58-.015.87-.015A24.243,24.243,0,0,1,100.75,74.619c0,.291,0,.581-.015.87q-.927.074-1.873.074A23.3,23.3,0,0,1,75.563,52.265ZM50.391,75.488c-.011-.289-.015-.578-.015-.87A24.243,24.243,0,0,1,74.619,50.375c.291,0,.581,0,.87.015q.074.927.074,1.874a23.3,23.3,0,0,1-23.3,23.3Q51.319,75.563,50.391,75.488Zm-25.2-23.224q0-.946.076-1.874c.287-.011.578-.015.87-.015-.291,0-.583-.005-.87-.015q-.074-.927-.076-1.874a23.3,23.3,0,0,1,23.3-23.3q.946,0,1.874.074.014.433.015.87A24.243,24.243,0,0,1,26.132,50.375,24.243,24.243,0,0,1,50.375,74.619q0,.437-.015.87-.927.074-1.874.074A23.3,23.3,0,0,1,25.187,52.265ZM.015,75.488Q0,75.056,0,74.619A24.243,24.243,0,0,1,24.243,50.375,24.243,24.243,0,0,1,0,26.132c0-.291.005-.583.015-.87q.927-.074,1.874-.076a23.3,23.3,0,0,1,23.3,23.3q0,.946-.074,1.874-.433.014-.87.015c.291,0,.581,0,.87.015q.074.927.074,1.874a23.3,23.3,0,0,1-23.3,23.3Q.943,75.563.015,75.488ZM377.887,50.36q-.074-.927-.074-1.874a23.3,23.3,0,0,1,23.3-23.3q.946,0,1.873.074c.011.289.015.578.015.87a24.243,24.243,0,0,1-24.243,24.243C378.467,50.375,378.175,50.37,377.887,50.36ZM352.626,26.132c0-.291,0-.583.015-.87q.927-.074,1.874-.076a23.3,23.3,0,0,1,23.3,23.3q0,.946-.074,1.874-.433.014-.87.015A24.243,24.243,0,0,1,352.626,26.132ZM277.137,50.36q-.074-.927-.074-1.874a23.3,23.3,0,0,1,23.3-23.3q.946,0,1.874.074.014.433.015.87a24.243,24.243,0,0,1-24.243,24.243Q277.57,50.375,277.137,50.36ZM251.875,26.132c0-.291.005-.583.015-.87q.927-.074,1.874-.076a23.3,23.3,0,0,1,23.3,23.3c0,.631-.026,1.256-.074,1.874-.289.01-.58.015-.871.015A24.243,24.243,0,0,1,251.875,26.132ZM176.388,50.36q-.074-.927-.076-1.874a23.3,23.3,0,0,1,23.3-23.3q.946,0,1.874.074.014.433.015.87a24.243,24.243,0,0,1-24.243,24.243C176.966,50.375,176.675,50.37,176.388,50.36ZM151.125,26.132c0-.291.005-.583.015-.87q.927-.074,1.874-.076a23.3,23.3,0,0,1,23.3,23.3q0,.946-.074,1.874-.433.014-.87.015A24.243,24.243,0,0,1,151.125,26.132ZM75.637,50.36q-.074-.927-.074-1.874a23.3,23.3,0,0,1,23.3-23.3q.946,0,1.873.074c.011.289.015.578.015.87A24.243,24.243,0,0,1,76.506,50.375C76.216,50.375,75.925,50.37,75.637,50.36ZM50.375,26.132c0-.291,0-.583.015-.87q.927-.074,1.874-.076a23.3,23.3,0,0,1,23.3,23.3q0,.946-.074,1.874-.433.014-.87.015A24.243,24.243,0,0,1,50.375,26.132ZM377.813,1.889q0-.946.074-1.874c.289-.01.58-.015.87-.015A24.243,24.243,0,0,1,403,24.243c0,.291,0,.581-.015.87q-.927.074-1.873.074A23.3,23.3,0,0,1,377.813,1.889ZM352.641,25.113c-.011-.289-.015-.578-.015-.87A24.243,24.243,0,0,1,376.869,0q.437,0,.87.015.074.927.074,1.874a23.3,23.3,0,0,1-23.3,23.3Q353.569,25.187,352.641,25.113Zm-25.2-23.224q0-.946.076-1.874c.287-.01.578-.015.87-.015a24.243,24.243,0,0,1,24.243,24.243q0,.437-.015.87-.927.074-1.874.074A23.3,23.3,0,0,1,327.437,1.889ZM302.265,25.113q-.014-.433-.015-.87A24.243,24.243,0,0,1,326.493,0q.437,0,.87.015.074.927.074,1.874a23.3,23.3,0,0,1-23.3,23.3Q303.193,25.187,302.265,25.113Zm-25.2-23.224q0-.946.074-1.874.433-.014.87-.015A24.243,24.243,0,0,1,302.25,24.243q0,.437-.015.87-.927.074-1.874.074A23.3,23.3,0,0,1,277.063,1.889ZM251.89,25.113q-.014-.433-.015-.87A24.243,24.243,0,0,1,276.118,0c.291,0,.583.005.871.015.048.618.074,1.243.074,1.874a23.3,23.3,0,0,1-23.3,23.3Q252.818,25.187,251.89,25.113Zm-25.2-23.224q0-.946.074-1.874c.289-.01.58-.015.87-.015a24.243,24.243,0,0,1,24.243,24.243c0,.291,0,.581-.015.87q-.927.074-1.873.074A23.3,23.3,0,0,1,226.688,1.889ZM201.516,25.113c-.011-.289-.015-.578-.015-.87A24.243,24.243,0,0,1,225.744,0q.437,0,.87.015.074.927.074,1.874a23.3,23.3,0,0,1-23.3,23.3Q202.444,25.187,201.516,25.113Zm-25.2-23.224q0-.946.076-1.874c.287-.01.578-.015.87-.015A24.243,24.243,0,0,1,201.5,24.243q0,.437-.015.87-.927.074-1.874.074A23.3,23.3,0,0,1,176.312,1.889ZM151.14,25.113q-.014-.433-.015-.87A24.243,24.243,0,0,1,175.368,0q.437,0,.87.015.074.927.074,1.874a23.3,23.3,0,0,1-23.3,23.3Q152.068,25.187,151.14,25.113Zm-25.2-23.224q0-.946.074-1.874.433-.014.87-.015a24.243,24.243,0,0,1,24.243,24.243q0,.437-.015.87-.927.074-1.874.074A23.3,23.3,0,0,1,125.938,1.889ZM100.765,25.113q-.014-.433-.015-.87A24.243,24.243,0,0,1,124.993,0c.291,0,.583.005.871.015.048.618.074,1.243.074,1.874a23.3,23.3,0,0,1-23.3,23.3Q101.693,25.187,100.765,25.113ZM75.563,1.889q0-.946.074-1.874c.289-.01.58-.015.87-.015A24.243,24.243,0,0,1,100.75,24.243c0,.291,0,.581-.015.87q-.927.074-1.873.074A23.3,23.3,0,0,1,75.563,1.889ZM50.391,25.113c-.011-.289-.015-.578-.015-.87A24.243,24.243,0,0,1,74.619,0q.437,0,.87.015.074.927.074,1.874a23.3,23.3,0,0,1-23.3,23.3Q51.319,25.187,50.391,25.113ZM25.187,1.889q0-.946.076-1.874c.287-.01.578-.015.87-.015A24.243,24.243,0,0,1,50.375,24.243q0,.437-.015.87-.927.074-1.874.074A23.3,23.3,0,0,1,25.187,1.889ZM.015,25.113Q0,24.68,0,24.243A24.243,24.243,0,0,1,24.243,0q.437,0,.87.015.074.927.074,1.874a23.3,23.3,0,0,1-23.3,23.3Q.943,25.187.015,25.113Z" fill="#f5eeff"/>
</svg>
